HIERARCHY
ROOT mixamorig:Hips
{
	OFFSET -0.000008 104.274872 1.554316
	CHANNELS 6 Xposition Yposition Zposition Xrotation Yrotation Zrotation
	JOINT mixamorig:Spine
	{
		OFFSET -0.000005 10.181587 0.131521
		CHANNELS 6 Xposition Yposition Zposition Xrotation Yrotation Zrotation
		JOINT mixamorig:Spine1
		{
			OFFSET -0.000000 9.893967 -1.470711
			CHANNELS 3 Xrotation Yrotation Zrotation
			JOINT mixamorig:Spine2
			{
				OFFSET -0.000000 9.220772 -1.370643
				CHANNELS 3 Xrotation Yrotation Zrotation
				JOINT mixamorig:Neck
				{
					OFFSET 0.000001 16.740387 -2.049035
					CHANNELS 6 Xposition Yposition Zposition Xrotation Yrotation Zrotation
					JOINT mixamorig:Head
					{
						OFFSET 0.000000 9.617889 1.685008
						CHANNELS 6 Xposition Yposition Zposition Xrotation Yrotation Zrotation
						JOINT mixamorig:HeadTop_End
						{
							OFFSET 0.000002 22.037369 7.501095
							CHANNELS 6 Xposition Yposition Zposition Xrotation Yrotation Zrotation
							End Site
							{
								OFFSET 0.000002 23.106552 -2.828258
							}
						}
					}
				}
				JOINT mixamorig:RightShoulder
				{
					OFFSET -4.569969 11.014908 -2.160884
					CHANNELS 6 Xposition Yposition Zposition Xrotation Yrotation Zrotation
					JOINT mixamorig:RightArm
					{
						OFFSET -10.592846 -0.524811 -2.232097
						CHANNELS 3 Xrotation Yrotation Zrotation
						JOINT mixamorig:RightForeArm
						{
							OFFSET -27.841518 0.000000 -0.000004
							CHANNELS 3 Xrotation Yrotation Zrotation
							JOINT mixamorig:RightHand
							{
								OFFSET -28.328838 0.000000 0.000019
								CHANNELS 3 Xrotation Yrotation Zrotation
								JOINT mixamorig:RightHandThumb1
								{
									OFFSET -2.464806 -1.573990 2.681852
									CHANNELS 6 Xposition Yposition Zposition Xrotation Yrotation Zrotation
									JOINT mixamorig:RightHandThumb2
									{
										OFFSET -3.215187 -1.872772 1.924281
										CHANNELS 3 Xrotation Yrotation Zrotation
										JOINT mixamorig:RightHandThumb3
										{
											OFFSET -2.654839 -1.527985 1.512611
											CHANNELS 3 Xrotation Yrotation Zrotation
											JOINT mixamorig:RightHandThumb4
											{
												OFFSET -2.018822 -1.152008 1.108052
												CHANNELS 3 Xrotation Yrotation Zrotation
												End Site
												{
													OFFSET -1.888100 -1.145340 1.324313
												}
											}
										}
									}
								}
								JOINT mixamorig:RightHandIndex1
								{
									OFFSET -9.108284 -0.517868 2.259834
									CHANNELS 6 Xposition Yposition Zposition Xrotation Yrotation Zrotation
									JOINT mixamorig:RightHandIndex2
									{
										OFFSET -3.699997 0.000015 0.001215
										CHANNELS 3 Xrotation Yrotation Zrotation
										JOINT mixamorig:RightHandIndex3
										{
											OFFSET -2.850006 0.000000 -0.000521
											CHANNELS 3 Xrotation Yrotation Zrotation
											JOINT mixamorig:RightHandIndex4
											{
												OFFSET -2.772186 0.000000 -0.000020
												CHANNELS 3 Xrotation Yrotation Zrotation
												End Site
												{
													OFFSET -2.772186 0.000000 -0.000502
												}
											}
										}
									}
								}
								JOINT mixamorig:RightHandMiddle1
								{
									OFFSET -9.532501 -0.000046 -0.000025
									CHANNELS 6 Xposition Yposition Zposition Xrotation Yrotation Zrotation
									JOINT mixamorig:RightHandMiddle2
									{
										OFFSET -3.699997 0.000015 0.003713
										CHANNELS 3 Xrotation Yrotation Zrotation
										JOINT mixamorig:RightHandMiddle3
										{
											OFFSET -2.949997 0.000000 -0.002054
											CHANNELS 3 Xrotation Yrotation Zrotation
											JOINT mixamorig:RightHandMiddle4
											{
												OFFSET -2.946632 0.000015 -0.000155
												CHANNELS 3 Xrotation Yrotation Zrotation
												End Site
												{
													OFFSET -2.946625 0.000000 -0.001135
												}
											}
										}
									}
								}
								JOINT mixamorig:RightHandRing1
								{
									OFFSET -9.103592 -0.043076 -1.865134
									CHANNELS 6 Xposition Yposition Zposition Xrotation Yrotation Zrotation
									JOINT mixamorig:RightHandRing2
									{
										OFFSET -3.379272 0.000000 -0.001054
										CHANNELS 3 Xrotation Yrotation Zrotation
										JOINT mixamorig:RightHandRing3
										{
											OFFSET -2.889687 0.000000 0.000379
											CHANNELS 3 Xrotation Yrotation Zrotation
											JOINT mixamorig:RightHandRing4
											{
												OFFSET -2.638817 0.000000 0.000942
												CHANNELS 3 Xrotation Yrotation Zrotation
												End Site
												{
													OFFSET -2.638802 0.000000 0.005160
												}
											}
										}
									}
								}
								JOINT mixamorig:RightHandPinky1
								{
									OFFSET -8.076675 -0.486710 -3.806279
									CHANNELS 6 Xposition Yposition Zposition Xrotation Yrotation Zrotation
									JOINT mixamorig:RightHandPinky2
									{
										OFFSET -3.599998 -0.000031 -0.003747
										CHANNELS 3 Xrotation Yrotation Zrotation
										JOINT mixamorig:RightHandPinky3
										{
											OFFSET -2.099991 -0.000015 -0.005740
											CHANNELS 3 Xrotation Yrotation Zrotation
											JOINT mixamorig:RightHandPinky4
											{
												OFFSET -2.115776 -0.000015 -0.003680
												CHANNELS 3 Xrotation Yrotation Zrotation
												End Site
												{
													OFFSET -2.115784 -0.000015 -0.003507
												}
											}
										}
									}
								}
							}
						}
					}
				}
				JOINT mixamorig:LeftShoulder
				{
					OFFSET 4.570447 11.014709 -2.160855
					CHANNELS 6 Xposition Yposition Zposition Xrotation Yrotation Zrotation
					JOINT mixamorig:LeftArm
					{
						OFFSET 10.592369 -0.524597 -2.232120
						CHANNELS 3 Xrotation Yrotation Zrotation
						JOINT mixamorig:LeftForeArm
						{
							OFFSET 27.841522 -0.000031 0.000023
							CHANNELS 3 Xrotation Yrotation Zrotation
							JOINT mixamorig:LeftHand
							{
								OFFSET 28.328835 -0.000031 0.000018
								CHANNELS 3 Xrotation Yrotation Zrotation
								JOINT mixamorig:LeftHandThumb1
								{
									OFFSET 2.466141 -1.576187 2.681734
									CHANNELS 6 Xposition Yposition Zposition Xrotation Yrotation Zrotation
									JOINT mixamorig:LeftHandThumb2
									{
										OFFSET 3.217804 -1.872055 1.916487
										CHANNELS 3 Xrotation Yrotation Zrotation
										JOINT mixamorig:LeftHandThumb3
										{
											OFFSET 2.656013 -1.528809 1.514505
											CHANNELS 3 Xrotation Yrotation Zrotation
											JOINT mixamorig:LeftHandThumb4
											{
												OFFSET 2.020889 -1.154068 1.115134
												CHANNELS 3 Xrotation Yrotation Zrotation
												End Site
												{
													OFFSET 1.908852 -1.150833 1.300489
												}
											}
										}
									}
								}
								JOINT mixamorig:LeftHandIndex1
								{
									OFFSET 9.109306 -0.518036 2.259871
									CHANNELS 6 Xposition Yposition Zposition Xrotation Yrotation Zrotation
									JOINT mixamorig:LeftHandIndex2
									{
										OFFSET 3.699997 -0.000015 -0.000323
										CHANNELS 3 Xrotation Yrotation Zrotation
										JOINT mixamorig:LeftHandIndex3
										{
											OFFSET 2.850006 -0.000015 0.000350
											CHANNELS 3 Xrotation Yrotation Zrotation
											JOINT mixamorig:LeftHandIndex4
											{
												OFFSET 2.774864 0.000000 -0.000027
												CHANNELS 3 Xrotation Yrotation Zrotation
												End Site
												{
													OFFSET 2.774872 -0.000015 -0.000099
												}
											}
										}
									}
								}
								JOINT mixamorig:LeftHandMiddle1
								{
									OFFSET 9.533401 0.000031 0.000044
									CHANNELS 6 Xposition Yposition Zposition Xrotation Yrotation Zrotation
									JOINT mixamorig:LeftHandMiddle2
									{
										OFFSET 3.699997 -0.000015 -0.000231
										CHANNELS 3 Xrotation Yrotation Zrotation
										JOINT mixamorig:LeftHandMiddle3
										{
											OFFSET 2.950005 0.000000 -0.000060
											CHANNELS 3 Xrotation Yrotation Zrotation
											JOINT mixamorig:LeftHandMiddle4
											{
												OFFSET 2.952858 0.000000 0.000063
												CHANNELS 3 Xrotation Yrotation Zrotation
												End Site
												{
													OFFSET 2.952866 0.000000 0.000228
												}
											}
										}
									}
								}
								JOINT mixamorig:LeftHandRing1
								{
									OFFSET 9.104530 -0.043030 -1.865074
									CHANNELS 6 Xposition Yposition Zposition Xrotation Yrotation Zrotation
									JOINT mixamorig:LeftHandRing2
									{
										OFFSET 3.150002 -0.000015 0.000042
										CHANNELS 3 Xrotation Yrotation Zrotation
										JOINT mixamorig:LeftHandRing3
										{
											OFFSET 2.949997 0.000000 0.000037
											CHANNELS 3 Xrotation Yrotation Zrotation
											JOINT mixamorig:LeftHandRing4
											{
												OFFSET 2.644318 -0.000015 0.000059
												CHANNELS 3 Xrotation Yrotation Zrotation
												End Site
												{
													OFFSET 2.644318 0.000000 0.000121
												}
											}
										}
									}
								}
								JOINT mixamorig:LeftHandPinky1
								{
									OFFSET 8.077782 -0.486877 -3.806256
									CHANNELS 6 Xposition Yposition Zposition Xrotation Yrotation Zrotation
									JOINT mixamorig:LeftHandPinky2
									{
										OFFSET 3.599968 0.000031 0.014726
										CHANNELS 3 Xrotation Yrotation Zrotation
										JOINT mixamorig:LeftHandPinky3
										{
											OFFSET 2.099991 0.000015 0.007705
											CHANNELS 3 Xrotation Yrotation Zrotation
											JOINT mixamorig:LeftHandPinky4
											{
												OFFSET 2.125511 0.000015 0.007514
												CHANNELS 3 Xrotation Yrotation Zrotation
												End Site
												{
													OFFSET 2.125526 0.000015 0.006258
												}
											}
										}
									}
								}
							}
						}
					}
				}
			}
		}
	}
	JOINT mixamorig:RightUpLeg
	{
		OFFSET -8.207787 -6.751671 -1.599560
		CHANNELS 6 Xposition Yposition Zposition Xrotation Yrotation Zrotation
		JOINT mixamorig:RightLeg
		{
			OFFSET -0.000001 -44.370113 0.345939
			CHANNELS 3 Xrotation Yrotation Zrotation
			JOINT mixamorig:RightFoot
			{
				OFFSET 0.000001 -44.423676 -3.043536
				CHANNELS 3 Xrotation Yrotation Zrotation
				JOINT mixamorig:RightToeBase
				{
					OFFSET -0.000003 -8.728670 10.710561
					CHANNELS 3 Xrotation Yrotation Zrotation
					JOINT mixamorig:RightToe_End
					{
						OFFSET -0.000003 -0.000677 9.278120
						CHANNELS 3 Xrotation Yrotation Zrotation
						End Site
						{
							OFFSET -0.000003 -0.000677 9.278120
						}
					}
				}
			}
		}
	}
	JOINT mixamorig:LeftUpLeg
	{
		OFFSET 8.207791 -6.751701 -1.599555
		CHANNELS 6 Xposition Yposition Zposition Xrotation Yrotation Zrotation
		JOINT mixamorig:LeftLeg
		{
			OFFSET -0.000002 -44.370033 0.346958
			CHANNELS 3 Xrotation Yrotation Zrotation
			JOINT mixamorig:LeftFoot
			{
				OFFSET 0.000000 -44.423653 -3.044392
				CHANNELS 3 Xrotation Yrotation Zrotation
				JOINT mixamorig:LeftToeBase
				{
					OFFSET -0.000003 -8.728668 10.710560
					CHANNELS 3 Xrotation Yrotation Zrotation
					JOINT mixamorig:LeftToe_End
					{
						OFFSET -0.000003 -0.000677 9.278137
						CHANNELS 3 Xrotation Yrotation Zrotation
						End Site
						{
							OFFSET -0.000003 -0.000677 9.278137
						}
					}
				}
			}
		}
	}
}
MOTION
Frames: 4
Frame Time: 0.033333
-5.793341 100.947044 10.425743 -1.866800 4.517333 -2.520087 -0.000005 10.181588 0.131522 0.251537 1.156277 0.728479 0.046737 0.614094 0.219301 0.047611 0.614985 0.216540 0.000001 16.740408 -2.049032 2.778133 -1.909691 2.347663 0.000001 9.617905 1.685010 -12.116418 -5.484186 -4.838207 0.000001 22.037354 7.501097 -0.000002 0.000000 -0.000000 -4.569967 11.014893 -2.160881 0.583213 5.574840 8.604011 3.236707 -13.460108 64.164327 -1.303328 9.080014 0.103499 39.131639 29.903740 -11.891017 -2.464810 -1.573974 2.681843 -16.636517 0.146559 -11.534362 6.928759 -5.736242 2.182518 -2.026405 1.767512 -1.879359 0.000001 -0.000001 -0.000003 -9.108283 -0.517880 2.259836 -0.340727 15.557434 -5.693125 0.042229 -0.748069 6.391430 0.026150 -0.614242 4.963530 0.000001 -0.000005 -0.000002 -9.532505 -0.000046 -0.000023 0.106520 -0.926260 -4.533982 0.351905 -2.131087 18.601417 0.124973 -1.537880 12.305114 0.000002 -0.000001 0.000004 -9.103582 -0.043069 -1.865133 1.746009 -9.036092 2.734485 0.907679 -3.457929 29.492002 0.020578 -2.166991 16.831444 0.000003 0.000001 -0.000000 -8.076679 -0.486710 -3.806275 1.076157 -14.472298 -4.961309 0.951625 -3.579242 31.587197 0.281652 -2.121720 17.168724 0.000001 -0.000000 -0.000003 4.570446 11.014729 -2.160852 0.449874 0.990137 -4.719069 -3.684666 4.152843 -67.636952 -0.875937 -6.130712 -0.046938 43.788712 -7.945756 6.843446 2.466119 -1.576206 2.681737 -5.019560 7.549557 -2.208763 17.017386 11.382141 1.808659 -8.521055 -8.397337 6.582676 0.000003 0.000001 -0.000001 9.109308 -0.518051 2.259872 -0.063001 -1.637229 3.990945 0.136284 1.370893 -11.337411 0.048721 0.812321 -6.810619 0.000000 -0.000002 0.000001 9.533401 0.000026 0.000045 0.036009 0.657303 -5.211465 0.070698 0.989792 -8.210663 0.091911 1.124949 -9.344582 0.000004 0.000000 0.000000 9.104530 -0.043039 -1.865072 3.327853 9.380800 -13.497458 0.154743 1.453809 -12.140164 0.186273 1.593155 -13.324774 0.000002 0.000001 -0.000002 8.077787 -0.486883 -3.806257 7.817375 11.019454 -38.543714 0.444417 -1.854616 -19.383177 0.106187 1.013761 -8.515121 -0.000002 -0.000002 0.000001 -8.207788 -6.751663 -1.599559 -6.962366 -1.890837 7.373981 22.848952 -9.112831 -5.811986 -13.200954 -23.790450 3.232548 -1.107639 -0.000010 -0.000001 -0.000000 0.000001 -0.000000 8.207791 -6.751692 -1.599555 -11.090494 13.276685 10.329473 27.114582 -8.410091 2.048374 -15.562277 0.968496 -4.298092 -2.690865 -0.000014 0.000000 0.000000 0.000000 0.000000 
-5.559756 100.951576 10.451007 -1.807591 4.232192 -2.543285 -0.000004 10.181583 0.131521 0.265422 1.126196 0.751822 0.051942 0.598534 0.232949 0.052743 0.599511 0.230196 0.000001 16.740389 -2.049030 3.001107 -1.909044 2.732055 0.000002 9.617871 1.685012 -12.678036 -5.169745 -4.582324 0.000003 22.037338 7.501098 0.000003 0.000000 0.000000 -4.569968 11.014903 -2.160880 0.580110 5.619555 8.736146 3.060809 -14.349481 64.011877 -1.322343 9.210279 0.106506 38.441056 29.837241 -11.740480 -2.464804 -1.573977 2.681842 -17.136303 0.987773 -11.620653 6.342375 -4.689362 2.068346 -2.128912 1.962679 -1.869046 0.000007 -0.000012 0.000004 -9.108270 -0.517885 2.259830 0.341126 16.050565 -8.187314 0.035948 -0.688963 5.903578 0.026167 -0.614215 4.963499 -0.000002 -0.000002 0.000002 -9.532504 -0.000047 -0.000025 0.106948 -1.034795 -5.130868 0.336557 -2.084052 18.194926 0.115126 -1.522791 12.160002 0.000004 0.000003 0.000002 -9.103580 -0.043075 -1.865133 1.763124 -9.730576 1.891350 0.899600 -3.443666 29.357143 -0.009689 -2.175548 16.790560 -0.000004 0.000001 -0.000003 -8.076667 -0.486695 -3.806276 0.831820 -15.427569 -6.218127 0.985244 -3.636018 32.130169 0.274980 -2.098852 16.973145 0.000002 0.000002 -0.000003 4.570447 11.014717 -2.160851 0.453607 0.811030 -4.699683 -3.637804 4.032675 -67.612008 -0.861889 -6.033194 -0.045475 43.462273 -7.906061 6.714692 2.466116 -1.576195 2.681734 -4.767854 7.852586 -3.063042 16.622374 10.225233 1.955171 -8.658184 -8.850268 6.639261 -0.000001 0.000008 0.000011 9.109303 -0.518034 2.259873 -0.020662 -2.428203 5.969205 0.126418 1.321098 -10.916552 0.047449 0.801468 -6.720063 -0.000001 0.000001 -0.000001 9.533396 0.000028 0.000045 -0.022712 0.188758 -2.946006 0.060890 0.919204 -7.620101 0.089700 1.111393 -9.230610 -0.000003 -0.000002 0.000001 9.104532 -0.043034 -1.865073 3.119034 9.618722 -11.350746 0.140368 1.385290 -11.559650 0.184846 1.587233 -13.274341 0.000001 -0.000001 0.000001 8.077783 -0.486880 -3.806261 8.018001 11.497721 -37.131760 0.429940 -1.892399 -19.048448 0.100184 0.979995 -8.230896 -0.000000 -0.000001 0.000001 -8.207787 -6.751661 -1.599559 -7.020497 -1.874344 7.233891 22.842287 -9.121924 -5.871173 -13.104921 -23.514629 3.453042 -1.130114 -0.000007 -0.000000 0.000000 -0.000000 -0.000000 8.207790 -6.751694 -1.599554 -11.040671 13.239692 10.169686 27.138421 -8.099462 2.026553 -15.662496 0.950143 -4.213285 -2.689792 0.000014 -0.000000 0.000000 0.000001 0.000000 
-5.337286 100.945717 10.461926 -1.758439 4.013966 -2.562934 -0.000004 10.181575 0.131521 0.316034 1.088776 0.766657 0.078415 0.578992 0.242448 0.079147 0.579986 0.239785 0.000001 16.740387 -2.049035 3.143198 -1.894479 3.000700 0.000000 9.617880 1.685011 -12.970927 -4.934600 -4.266718 0.000001 22.037354 7.501100 0.000000 -0.000000 0.000000 -4.569969 11.014923 -2.160883 0.579413 5.562968 8.802085 2.890649 -14.942408 63.966559 -1.341507 9.341366 0.109602 37.671256 29.819598 -11.722958 -2.464803 -1.573991 2.681838 -17.535802 1.526084 -11.423034 5.985429 -4.044628 1.998122 -2.345066 2.375040 -1.847098 -0.000001 -0.000003 -0.000001 -9.108289 -0.517870 2.259828 0.827249 16.348299 -9.910190 0.031328 -0.642074 5.516861 0.026181 -0.614225 4.963504 0.000002 -0.000001 -0.000001 -9.532516 -0.000054 -0.000027 0.103598 -1.127487 -5.739778 0.318438 -2.027037 17.703623 0.104833 -1.505175 11.994269 0.000001 -0.000000 -0.000001 -9.103600 -0.043094 -1.865135 1.714095 -10.149519 1.074178 0.885168 -3.418034 29.114853 -0.032282 -2.175239 16.712693 0.000004 0.000001 0.000001 -8.076674 -0.486709 -3.806276 0.554628 -15.876795 -7.361774 1.007122 -3.672383 32.479735 0.270226 -2.082322 16.831686 -0.000001 0.000002 -0.000001 4.570445 11.014737 -2.160855 0.452343 0.862100 -4.726522 -3.904699 4.004418 -67.529848 -0.813000 -5.693390 -0.040466 43.436455 -7.784245 6.769581 2.466126 -1.576198 2.681734 -4.480498 8.163444 -3.763993 16.278631 9.193526 2.080465 -8.765243 -9.208396 6.683815 -0.000000 0.000006 0.000002 9.109303 -0.518038 2.259873 0.051060 -3.042099 7.626331 0.116902 1.271011 -10.493831 0.045720 0.786691 -6.596822 0.000004 -0.000001 -0.000001 9.533416 0.000034 0.000046 -0.039742 -0.131008 -1.057503 0.054193 0.867364 -7.186962 0.088627 1.104833 -9.175497 -0.000006 -0.000000 -0.000001 9.104543 -0.043040 -1.865075 2.968837 9.821862 -9.823123 0.132035 1.343938 -11.209968 0.183835 1.582840 -13.236638 0.000000 -0.000000 0.000001 8.077793 -0.486877 -3.806261 8.137226 11.831663 -36.155255 0.425064 -1.905305 -18.934324 0.096053 0.956070 -8.029768 0.000001 -0.000000 0.000005 -8.207787 -6.751670 -1.599559 -7.102238 -1.873095 7.097513 22.892028 -9.134383 -5.915473 -13.036523 -23.308739 3.655712 -1.080846 -0.000005 -0.000003 -0.000000 0.000003 -0.000000 8.207793 -6.751700 -1.599555 -11.026562 13.166919 9.993466 27.219199 -7.763820 2.043170 -15.769198 0.938885 -4.151629 -2.648475 -0.000010 -0.000003 0.000000 -0.000000 -0.000000 
-5.128687 100.947227 10.483582 -1.731000 3.796307 -2.572055 -0.000004 10.181592 0.131518 0.359032 1.103180 0.783490 0.100637 0.586386 0.252901 0.101317 0.587422 0.250198 0.000002 16.740395 -2.049032 3.306748 -1.867193 3.121728 0.000001 9.617860 1.685004 -13.163102 -4.841378 -3.862390 0.000002 22.037338 7.501085 0.000001 0.000000 0.000000 -4.569969 11.014901 -2.160882 0.578394 5.436617 8.906081 2.682294 -15.291588 63.899425 -1.331328 9.271711 0.107968 37.036554 29.578261 -11.579002 -2.464803 -1.573970 2.681841 -17.791367 1.775480 -11.141926 5.839107 -3.775840 1.965493 -2.611450 2.883983 -1.819167 0.000001 -0.000005 0.000000 -9.108260 -0.517886 2.259839 1.094396 16.592418 -10.814466 0.028535 -0.612117 5.270165 0.026164 -0.614248 4.963515 -0.000002 -0.000000 -0.000002 -9.532501 -0.000045 -0.000020 0.098670 -1.137586 -6.098620 0.300247 -1.967960 17.195742 0.098218 -1.490965 11.865767 0.000002 -0.000001 0.000002 -9.103577 -0.043111 -1.865126 1.640859 -10.134972 0.632655 0.865298 -3.382280 28.778322 -0.041718 -2.160547 16.576464 -0.000005 -0.000002 0.000002 -8.076669 -0.486707 -3.806268 0.409749 -16.010650 -7.918467 1.006831 -3.671830 32.474432 0.268363 -2.075872 16.776567 0.000001 -0.000001 -0.000003 4.570446 11.014723 -2.160852 0.456869 0.896490 -4.873163 -4.283679 4.007221 -67.322525 -0.741288 -5.194088 -0.033641 43.518113 -7.761958 7.139299 2.466141 -1.576197 2.681735 -4.267511 8.380683 -4.205674 16.047603 8.486177 2.163487 -8.839684 -9.460235 6.715130 -0.000002 0.000006 0.000004 9.109320 -0.518061 2.259871 0.114239 -3.401826 8.721946 0.108463 1.224868 -10.105058 0.044622 0.777346 -6.518598 0.000007 0.000000 -0.000001 9.533418 0.000031 0.000044 -0.028080 -0.246460 0.295277 0.050186 0.835131 -6.917521 0.088617 1.104679 -9.174276 0.000001 -0.000001 0.000005 9.104557 -0.043031 -1.865076 2.928793 9.883260 -9.414315 0.130075 1.334127 -11.127039 0.183056 1.579547 -13.208752 0.000003 -0.000001 -0.000001 8.077803 -0.486882 -3.806260 8.190065 11.937085 -35.929725 0.428049 -1.897361 -19.004573 0.094462 0.946617 -7.950280 -0.000001 0.000001 -0.000002 -8.207786 -6.751672 -1.599560 -7.136356 -1.901904 6.926284 22.917457 -9.149433 -5.912156 -12.983292 -23.024213 3.829311 -1.110603 0.000010 0.000004 -0.000000 0.000003 -0.000000 8.207792 -6.751687 -1.599554 -10.969787 13.138554 9.842567 27.249668 -7.451008 2.017851 -15.853880 0.922537 -4.077582 -2.660467 -0.000004 -0.000001 -0.000000 0.000001 0.000000 
